<svg width="160" height="160" viewBox="0 0 160 160" fill="none" xmlns="http://www.w3.org/2000/svg">
  <rect width="160" height="160" fill="#eee8dc"/>
  <rect x="12" y="12" width="44" height="44" fill="#111"/>
  <rect x="22" y="22" width="24" height="24" fill="#eee8dc"/>
  <rect x="104" y="12" width="44" height="44" fill="#111"/>
  <rect x="114" y="22" width="24" height="24" fill="#eee8dc"/>
  <rect x="12" y="104" width="44" height="44" fill="#111"/>
  <rect x="22" y="114" width="24" height="24" fill="#eee8dc"/>
  <rect x="70" y="16" width="12" height="12" fill="#111"/>
  <rect x="84" y="30" width="10" height="10" fill="#111"/>
  <rect x="66" y="48" width="18" height="10" fill="#111"/>
  <rect x="72" y="72" width="10" height="10" fill="#111"/>
  <rect x="90" y="68" width="18" height="18" fill="#111"/>
  <rect x="116" y="72" width="10" height="22" fill="#111"/>
  <rect x="132" y="66" width="14" height="14" fill="#111"/>
  <rect x="66" y="100" width="14" height="14" fill="#111"/>
  <rect x="86" y="102" width="10" height="28" fill="#111"/>
  <rect x="104" y="104" width="18" height="10" fill="#111"/>
  <rect x="132" y="108" width="12" height="12" fill="#111"/>
  <rect x="106" y="130" width="12" height="12" fill="#111"/>
  <rect x="124" y="134" width="22" height="10" fill="#111"/>
  <rect x="66" y="134" width="16" height="12" fill="#111"/>
  <text x="80" y="154" text-anchor="middle" font-family="Arial, sans-serif" font-size="8" fill="#111">PLACEHOLDER</text>
</svg>
